
        <svg width="800" height="300" viewBox="0 0 800 300">
            <defs>
                <linearGradient id="mountainGradient" x1="0%" y1="0%" x2="0%" y2="100%">
                    <stop offset="0%" style="stop-color:#8B4513;stop-opacity:0.8"/>
                    <stop offset="100%" style="stop-color:#DEB887;stop-opacity:0.3"/>
                </linearGradient>
                <linearGradient id="hillsGradient" x1="0%" y1="0%" x2="0%" y2="100%">
                    <stop offset="0%" style="stop-color:#228B22;stop-opacity:0.7"/>
                    <stop offset="100%" style="stop-color:#90EE90;stop-opacity:0.2"/>
                </linearGradient>
                <linearGradient id="mixedGradient" x1="0%" y1="0%" x2="0%" y2="100%">
                    <stop offset="0%" style="stop-color:#4682B4;stop-opacity:0.8"/>
                    <stop offset="100%" style="stop-color:#B0C4DE;stop-opacity:0.2"/>
                </linearGradient>
            </defs>
            <rect width="800" height="300" fill="url(#skyGradient)"/>
            <path d="M0.0,140.26821506598782 L57.142857142857146,105.34488543514125 L114.28571428571429,96.96869713533549 L171.42857142857144,111.8805889318081 L228.57142857142858,132.6656300074327 L285.7142857142857,193.62447097046592 L342.8571428571429,165.32709396268163 L400.0,183.53498794892778 L457.14285714285717,137.42995891522182 L514.2857142857143,102.68757701097876 L571.4285714285714,103.99071239693548 L628.5714285714286,121.58333226532297 L685.7142857142858,154.16985005814115 L742.8571428571429,209.80541470640517 L800.0,203.06800964389885 L800,300 L0,300 Z" fill="url(#mountainGradient)" opacity="0.6"/>
            <path d="M0.0,140.26821506598782 L57.142857142857146,105.34488543514125 L114.28571428571429,96.96869713533549 L171.42857142857144,111.8805889318081 L228.57142857142858,132.6656300074327 L285.7142857142857,193.62447097046592 L342.8571428571429,165.32709396268163 L400.0,183.53498794892778 L457.14285714285717,137.42995891522182 L514.2857142857143,102.68757701097876 L571.4285714285714,103.99071239693548 L628.5714285714286,121.58333226532297 L685.7142857142858,154.16985005814115 L742.8571428571429,209.80541470640517 L800.0,203.06800964389885" stroke="#8B4513" stroke-width="2.5" fill="none"/>
        </svg>
        